{
  "accessors": [
    {
      "bufferView": 1,
      "componentType": 5126,
      "count": 29900,
      "max": [
        779.8790283203125,
        730.6298828125,
        452.75
      ],
      "min": [
        -779.8790283203125,
        -730.6298828125,
        -452.75
      ],
      "type": "VEC3"
    },
    {
      "bufferView": 1,
      "byteOffset": 358800,
      "componentType": 5126,
      "count": 29900,
      "max": [
        1.0,
        1.0,
        0.9511311054229736
      ],
      "min": [
        -1.0,
        -1.0,
        -0.9511328935623169
      ],
      "type": "VEC3"
    },
    {
      "bufferView": 0,
      "componentType": 5125,
      "count": 60660,
      "type": "SCALAR"
    }
  ],
  "asset": {
    "extras": {
      "author": "camaal (https://sketchfab.com/camaal)",
      "license": "CC-BY-4.0 (http://creativecommons.org/licenses/by/4.0/)",
      "source": "https://sketchfab.com/3d-models/knowledge-network-37448fd3933f4394aea66ee92b8f2053",
      "title": "Knowledge Network"
    },
    "generator": "Sketchfab-12.68.0",
    "version": "2.0"
  },
  "bufferViews": [
    {
      "buffer": 0,
      "byteLength": 242640,
      "name": "floatBufferViews",
      "target": 34963
    },
    {
      "buffer": 0,
      "byteLength": 717600,
      "byteOffset": 242640,
      "byteStride": 12,
      "name": "floatBufferViews",
      "target": 34962
    }
  ],
  "buffers": [
    {
      "byteLength": 960240,
      "uri": "scene.bin"
    }
  ],
  "materials": [
    {
      "doubleSided": true,
      "name": "Scene_-_Root",
      "pbrMetallicRoughness": {
        "metallicFactor": 0.0,
        "roughnessFactor": 0.6
      }
    }
  ],
  "meshes": [
    {
      "name": "Default",
      "primitives": [
        {
          "attributes": {
            "NORMAL": 1,
            "POSITION": 0
          },
          "indices": 2,
          "material": 0,
          "mode": 4
        }
      ]
    }
  ],
  "nodes": [
    {
      "children": [
        1
      ],
      "matrix": [
        1.0,
        0.0,
        0.0,
        0.0,
        0.0,
        2.220446049250313e-16,
        -1.0,
        0.0,
        0.0,
        1.0,
        2.220446049250313e-16,
        0.0,
        0.0,
        0.0,
        0.0,
        1.0
      ],
      "name": "Sketchfab_model"
    },
    {
      "children": [
        2
      ],
      "matrix": [
        1.0,
        0.0,
        0.0,
        0.0,
        0.0,
        -4.371139006309477e-08,
        0.999999999999999,
        0.0,
        0.0,
        -0.999999999999999,
        -4.371139006309477e-08,
        0.0,
        0.0,
        0.0,
        0.0,
        1.0
      ],
      "name": "Collada visual scene group"
    },
    {
      "children": [
        3
      ],
      "matrix": [
        2.299507,
        0.0,
        0.0,
        0.0,
        0.0,
        0.0,
        -2.299507,
        0.0,
        0.0,
        2.299507,
        0.0,
        0.0,
        1979.765991,
        -1375.569336,
        -1809.223145,
        1.0
      ],
      "name": "k-core4d"
    },
    {
      "mesh": 0,
      "name": "Default"
    }
  ],
  "scene": 0,
  "scenes": [
    {
      "name": "Sketchfab_Scene",
      "nodes": [
        0
      ]
    }
  ]
}
